<svg xmlns="http://www.w3.org/2000/svg" width="237" height="37" viewBox="0 0 237 37">
    <defs>
        <style>
            .cls-1 {
            fill: #fff;
            fill-rule: evenodd;
            }
        </style>
    </defs>
    <path id="logo" class="cls-1"
        d="M267.537,59.148l5.466,7.8h-1.954l-5.3-7.692h-4.164v7.692h-1.614V48.363h7.053c3.257,0,5.75,2.034,5.75,5.434A5.163,5.163,0,0,1,267.537,59.148Zm-0.652-9.336h-5.3v8h5.3A4,4,0,1,0,266.885,49.812ZM244,48.363H255.98v1.449H245.613V56.7h10.169v1.449H245.613V65.5H255.98v1.449H244V48.363Zm-5.1,18.588-7.79-8.751-2.1,2.257v6.493H227.4V48.363h1.614V58.534l9.121-10.172H240.2l-8.045,8.862,8.809,9.726H238.9Zm-21.725-1.115a6.935,6.935,0,0,0,5.58-2.7l1.359,0.836a8.547,8.547,0,0,1-6.939,3.316,9.3,9.3,0,0,1-9.517-9.614,9.3,9.3,0,0,1,9.517-9.614,8.6,8.6,0,0,1,6.939,3.288l-1.359.864a6.934,6.934,0,0,0-5.58-2.7c-4.391,0-7.818,3.316-7.818,8.165A7.78,7.78,0,0,0,217.176,65.836ZM202.985,62.38H192.93l-1.9,4.57h-1.813l7.733-18.588h2.011L206.7,66.951h-1.813Zm-5.042-12.457-4.5,11.008h9.036ZM185.4,66.951l-5.3-7.692h-4.164v7.692H174.32V48.363h7.053c3.258,0,5.75,2.034,5.75,5.434a5.163,5.163,0,0,1-5.24,5.351l5.467,7.8H185.4ZM185.424,53.8a3.905,3.905,0,0,0-4.192-3.985h-5.3v8h5.3A3.927,3.927,0,0,0,185.424,53.8ZM164.8,66.951h-1.643V49.812h-6.175V48.363h13.992v1.449H164.8V66.951Zm-25.01-18.757H155.1V52.66h-9.925v2.5h9.706v4.5h-9.706v2.772H155.1v4.467h-15.31v-18.7ZM130.652,55.8l-5.291,11.089h-2.379L117.722,55.8V66.891h-5.385v-18.7h7.483l4.352,9.8,4.383-9.8h7.482v18.7h-5.385V55.8Zm-6.638-13.549h-2.158V38.137l-3.821-5.81-3.856,9.926h-2.7L107.552,32.2h2.463l2.811,7.734,2.8-7.734h4.789l2.523,4.04,2.492-4.04h2.463l-3.876,5.94v4.116Zm-21.22.2a5.212,5.212,0,1,1,0-10.418,4.758,4.758,0,0,1,4.2,2.2L105.2,35.2a2.885,2.885,0,0,0-2.4-1.266,3.3,3.3,0,0,0,0,6.6,3.443,3.443,0,0,0,2.189-.769V38.544h-2.706V36.7h4.834v3.844A5.648,5.648,0,0,1,102.794,42.449ZM93.72,32.2h2.158V42.253H93.72V32.2Zm-9.364,8.322,4.788-6.438H84.356V32.2h7.615v1.719l-4.788,6.453h4.894v1.885H84.356V40.519Zm16.272,12.3H94.805V66.891H89.42V52.814H83.565v-4.62h17.063v4.621ZM72.351,31h1.064V67.991H72.351V31Zm-17,8.233H44.371L36,31H63.481V67.275l-8.134-8V39.236ZM108.58,66.891H103.2v-18.7h5.385v18.7Z"
        transform="translate(-36 -31)" />
</svg>